<?xml version="1.0" encoding="UTF-8"?>
<svg viewBox="0 0 601 204" xmlns="http://www.w3.org/2000/svg">
<path d="m7 151h11.049v-44.977l25.69 44.977h9.4031l25.686-44.977v44.977h11.051v-68h-10.857l-30.536 53.623-30.628-53.623h-10.859v68zm108.56 0h42.75v-11.074h-31.699v-17.389h31.699v-11.074h-31.699v-17.389h31.699v-11.074h-42.75v68zm85.048 0h11.051v-56.926h25.59v-11.074h-62.33v11.074h25.691v56.926h-2e-3zm102.69 0h12.116l-31.505-68h-10.758l-31.506 68h12.119l5.428-11.851h38.58l5.526 11.851zm-38.97-22.926 14.153-30.6 14.153 30.6h-28.306zm70.223 22.926h11.051v-21.371h14.249c13.572 0 23.361-9.812 23.361-23.315 0-13.402-9.789-23.314-23.361-23.314h-25.3v68zm11.051-32.446v-24.48h14.249c7.172 0 12.31 5.1495 12.31 12.24 0 7.092-5.138 12.24-12.31 12.24h-14.249zm58.505 32.446h43.331v-11.074h-32.28v-56.926h-11.051v68zm62.741 0h42.751v-11.074h-31.7v-17.389h31.7v-11.074h-31.7v-17.389h31.7v-11.074h-42.751v68zm60.038 0h14.249l20.358-25.16 20.26 25.16h14.249l-27.432-34 27.432-34h-14.153l-20.356 25.16-20.358-25.16h-14.249l27.433 34-27.433 34z" fill="#fff"/>
<path d="m13.82 51c-1.4053 0-2.5213-0.372-3.348-1.116-0.78529-0.744-1.178-1.7567-1.178-3.038 0-0.2067 0.04133-0.558 0.124-1.054l6.758-38.192h19.716c3.6374 0 6.5307 0.76466 8.68 2.294 2.1907 1.488 3.286 3.5133 3.286 6.076 0 0.5373-0.062 1.0953-0.186 1.674l-0.558 3.162c-0.2893 1.4467-0.8886 2.8313-1.798 4.154-0.9093 1.2813-2.046 2.294-3.41 3.038v0.062c1.6121 0.5787 2.8727 1.5087 3.782 2.79 0.9507 1.24 1.426 2.6867 1.426 4.34 0 0.6613-0.0413 1.178-0.124 1.55l-0.558 3.1c-0.5786 3.5547-2.108 6.3033-4.588 8.246s-5.6626 2.914-9.548 2.914h-18.476zm19.964-24.862c1.5294 0 2.852-0.496 3.968-1.488s1.8187-2.2733 2.108-3.844l0.434-2.542c0.0414-0.1653 0.062-0.434 0.062-0.806 0-1.0747-0.434-1.922-1.302-2.542-0.868-0.6613-2.0666-0.992-3.596-0.992h-13.206l-2.108 12.214h13.64zm-1.86 18.538c2.0254 0 3.658-0.4547 4.898-1.364 1.2814-0.9093 2.0874-2.17 2.418-3.782l0.558-2.79c0.0414-0.2067 0.062-0.496 0.062-0.868 0-1.116-0.434-2.0253-1.302-2.728-0.8266-0.7027-1.9633-1.054-3.41-1.054h-16.058l-2.232 12.586h15.066z" fill="#fff"/>
<path d="m60.609 51.496c-3.0173 0-5.4146-0.6613-7.192-1.984-1.736-1.3227-2.604-3.0793-2.604-5.27 0-0.3307 0.0414-0.8267 0.124-1.488l0.372-2.294c0.496-2.728 1.7567-4.836 3.782-6.324 2.0667-1.488 4.6707-2.232 7.812-2.232h3.844c1.24 0 2.5834 0.1653 4.03 0.496 1.488 0.3307 2.728 0.7647 3.72 1.302l0.62-3.844c0.0827-0.4133 0.124-0.7233 0.124-0.93 0-1.0333-0.3513-1.8393-1.054-2.418-0.6613-0.62-1.5706-0.93-2.728-0.93h-5.146c-1.4053 0-2.5833 0.31-3.534 0.93-0.9093 0.62-1.4673 1.4673-1.674 2.542h-6.944c0.5374-2.9347 1.9014-5.2493 4.092-6.944 2.232-1.6947 5.0014-2.542 8.308-2.542h5.146c3.2653 0 5.8487 0.7647 7.75 2.294 1.9427 1.488 2.914 3.5133 2.914 6.076 0 0.5787-0.062 1.2193-0.186 1.922l-3.72 21.142h-6.634l0.744-3.906c-1.2813 1.364-2.6453 2.4387-4.092 3.224-1.4466 0.7853-2.852 1.178-4.216 1.178h-3.658zm4.464-5.58c1.612 0 3.162-0.4547 4.65-1.364 1.5294-0.9507 2.6867-2.1907 3.472-3.72l0.31-1.488c-0.62-0.5787-1.55-1.0333-2.79-1.364-1.1986-0.372-2.5006-0.558-3.906-0.558h-3.906c-1.2813 0-2.3353 0.31-3.162 0.93-0.8266 0.5787-1.3226 1.3847-1.488 2.418l-0.372 1.736c-0.0413 0.124-0.062 0.3307-0.062 0.62 0 0.8267 0.3307 1.5087 0.992 2.046 0.7027 0.496 1.6327 0.744 2.79 0.744h3.472z" fill="#fff"/>
<path d="m97.015 51.496c-3.3893 0-6.0553-0.7647-7.998-2.294-1.9426-1.5707-2.914-3.6787-2.914-6.324 0-0.5787 0.062-1.178 0.186-1.798h7.006c-0.0413 0.2067-0.062 0.496-0.062 0.868 0 1.0747 0.3514 1.9427 1.054 2.604 0.7027 0.62 1.6947 0.93 2.976 0.93h5.5178c1.447 0 2.584-0.2273 3.41-0.682 0.868-0.4547 1.385-1.116 1.55-1.984l0.31-1.364c0.083-0.5373-0.082-1.0127-0.496-1.426-0.372-0.4547-0.95-0.7647-1.736-0.93l-10.416-1.86c-2.108-0.4133-3.7613-1.178-4.96-2.294-1.1573-1.116-1.736-2.4387-1.736-3.968 0-0.2067 0.0414-0.558 0.124-1.054l0.372-2.046c0.4547-2.604 1.7567-4.6293 3.906-6.076 2.1494-1.488 4.9187-2.232 8.3078-2.232h4.96c3.183 0 5.684 0.7233 7.502 2.17 1.819 1.4467 2.728 3.3893 2.728 5.828 0 0.744-0.041 1.302-0.124 1.674h-7.006c0.042-0.1653 0.062-0.4133 0.062-0.744 0-0.9093-0.31-1.612-0.93-2.108-0.578-0.5373-1.405-0.806-2.48-0.806h-4.898c-1.3638 0-2.5004 0.2273-3.4098 0.682-0.868 0.4547-1.3846 1.0953-1.55 1.922l-0.248 1.24c-0.0826 0.5373 0.062 1.0333 0.434 1.488 0.372 0.4133 0.9714 0.682 1.798 0.806l10.726 1.984c1.984 0.4133 3.534 1.178 4.65 2.294s1.674 2.418 1.674 3.906c0 0.4133-0.02 0.7233-0.062 0.93l-0.434 2.294c-0.454 2.6453-1.756 4.712-3.906 6.2-2.149 1.4467-4.939 2.17-8.37 2.17h-5.5178z" fill="#fff"/>
<path d="m131.68 51.496c-3.596 0-6.427-0.8267-8.494-2.48-2.067-1.6947-3.1-3.968-3.1-6.82 0-0.7027 0.062-1.426 0.186-2.17l1.426-8.308c0.661-3.8027 2.232-6.7787 4.712-8.928 2.521-2.1493 5.663-3.224 9.424-3.224h4.96c3.431 0 6.159 0.8887 8.184 2.666s3.038 4.1333 3.038 7.068c0 0.6613-0.062 1.4053-0.186 2.232l-1.054 6.262h-23.064l-0.372 2.232c-0.041 0.248-0.062 0.5993-0.062 1.054 0 1.364 0.413 2.4387 1.24 3.224s1.963 1.178 3.41 1.178h4.836c1.736 0 3.162-0.3927 4.278-1.178s1.798-1.86 2.046-3.224h6.944c-0.537 3.2653-2.005 5.828-4.402 7.688-2.356 1.8187-5.373 2.728-9.052 2.728h-4.898zm13.02-19.034 0.124-0.806c0.083-0.372 0.124-0.868 0.124-1.488 0-1.4467-0.393-2.5833-1.178-3.41s-1.86-1.24-3.224-1.24h-5.084c-1.695 0-3.162 0.5787-4.402 1.736-1.199 1.116-1.984 2.6453-2.356 4.588l-0.124 0.62h16.12z" fill="#fff"/>
<path d="m165.92 51.496c-3.265 0-5.849-0.8473-7.75-2.542-1.86-1.6947-2.79-4.0093-2.79-6.944 0-0.9093 0.083-1.7567 0.248-2.542l1.24-7.192c0.703-3.968 2.273-7.068 4.712-9.3 2.439-2.2733 5.497-3.41 9.176-3.41h3.72c1.529 0 2.914 0.2893 4.154 0.868 1.281 0.5373 2.273 1.302 2.976 2.294l2.728-15.128h7.068l-7.626 43.4h-6.696l0.744-4.278c-1.116 1.488-2.397 2.666-3.844 3.534-1.447 0.8267-2.873 1.24-4.278 1.24h-3.782zm4.836-6.138c1.777 0 3.451-0.7027 5.022-2.108 1.571-1.4467 2.625-3.224 3.162-5.332l1.116-6.2c0.041-1.8187-0.393-3.2653-1.302-4.34-0.909-1.116-2.129-1.674-3.658-1.674h-3.906c-1.86 0-3.451 0.62-4.774 1.86-1.281 1.24-2.108 2.9347-2.48 5.084l-1.116 6.386c-0.124 0.62-0.186 1.178-0.186 1.674 0 1.4467 0.393 2.5833 1.178 3.41s1.881 1.24 3.286 1.24h3.658z" fill="#fff"/>
<path d="m221.16 51.496c-3.513 0-6.324-0.8887-8.432-2.666-2.066-1.8187-3.1-4.216-3.1-7.192 0-0.744 0.062-1.488 0.186-2.232l1.364-7.688c0.703-3.8027 2.294-6.7787 4.774-8.928s5.58-3.224 9.3-3.224h5.394c3.596 0 6.428 0.8887 8.494 2.666 2.108 1.7773 3.162 4.154 3.162 7.13 0 0.496-0.082 1.2813-0.248 2.356l-1.364 7.688c-0.702 3.8027-2.294 6.7787-4.774 8.928-2.438 2.108-5.559 3.162-9.362 3.162h-5.394zm5.58-6.138c1.778 0 3.286-0.5787 4.526-1.736s2.026-2.7073 2.356-4.65l1.24-6.882c0.083-0.3307 0.124-0.8267 0.124-1.488 0-1.488-0.434-2.666-1.302-3.534-0.826-0.9093-1.963-1.364-3.41-1.364h-5.208c-1.818 0-3.327 0.558-4.526 1.674-1.198 1.116-1.963 2.6867-2.294 4.712l-1.24 6.882c-0.082 0.372-0.124 0.8887-0.124 1.55 0 1.488 0.414 2.666 1.24 3.534 0.827 0.868 1.964 1.302 3.41 1.302h5.208z" fill="#fff"/>
<path d="m250.8 20.062h6.634l-0.683 4.03c1.199-1.4053 2.522-2.5007 3.968-3.286 1.488-0.8267 2.915-1.24 4.279-1.24h3.658c2.934 0 5.249 0.7853 6.944 2.356 1.694 1.5707 2.541 3.6787 2.541 6.324 0 0.744-0.062 1.5293-0.186 2.356l-3.534 20.398h-7.13l3.535-20.212c0.082-0.5787 0.124-1.0127 0.124-1.302 0-1.116-0.31-2.0047-0.93-2.666-0.579-0.7027-1.385-1.054-2.419-1.054h-3.844c-1.612 0-3.182 0.62-4.711 1.86-1.488 1.1987-2.584 2.7487-3.286 4.65l-3.287 18.724h-7.129l5.456-30.938z" fill="#fff"/>
</svg>
