<svg width="283" height="44" viewBox="0 0 283 44" fill="none" xmlns="http://www.w3.org/2000/svg">
<path d="M3 5.384H8.904L25.032 28.232V5.384H31.512V38.984H25.608L9.48 16.136V38.984H3V5.384Z" fill="black"/>
<path d="M37.4531 5.384H62.6051V11.144H44.0771V20.168H60.8291V25.928H44.0771V38.984H37.4531V5.384Z" fill="black"/>
<path d="M74.6779 11.144H64.0219V5.384H91.9579V11.144H81.3019V38.984H74.6779V11.144Z" fill="black"/>
<path d="M120.783 39.368C118.319 39.368 116.143 38.84 114.255 37.784C112.399 36.728 110.959 35.24 109.935 33.32C108.911 31.368 108.399 29.128 108.399 26.6V17.768C108.399 15.24 108.911 13.016 109.935 11.096C110.991 9.144 112.463 7.64 114.351 6.584C116.271 5.528 118.479 5 120.975 5H126.063C128.463 5 130.575 5.512 132.399 6.536C134.223 7.56 135.631 9 136.623 10.856C137.647 12.68 138.159 14.808 138.159 17.24H131.631C131.631 15.32 131.119 13.784 130.095 12.632C129.071 11.448 127.727 10.856 126.063 10.856H120.975C119.183 10.856 117.743 11.528 116.655 12.872C115.567 14.184 115.023 15.912 115.023 18.056V26.312C115.023 28.456 115.551 30.2 116.607 31.544C117.663 32.856 119.055 33.512 120.783 33.512H125.967C127.663 33.512 129.039 32.856 130.095 31.544C131.183 30.232 131.727 28.504 131.727 26.36H138.255C138.255 28.952 137.743 31.24 136.719 33.224C135.695 35.176 134.255 36.696 132.399 37.784C130.543 38.84 128.399 39.368 125.967 39.368H120.783Z" fill="black"/>
<path d="M142.214 15.032H148.262V18.104C148.87 17.176 149.734 16.424 150.854 15.848C152.006 15.24 153.206 14.936 154.454 14.936H157.718V20.6H154.454C152.758 20.6 151.382 21.112 150.326 22.136C149.27 23.16 148.742 24.472 148.742 26.072V38.984H142.214V15.032Z" fill="black"/>
<path d="M169.151 39.368C167.135 39.368 165.343 39 163.775 38.264C162.239 37.496 161.039 36.44 160.175 35.096C159.311 33.72 158.879 32.152 158.879 30.392V24.2C158.879 22.312 159.311 20.648 160.175 19.208C161.039 17.768 162.239 16.648 163.775 15.848C165.343 15.048 167.135 14.648 169.151 14.648H172.991C176.063 14.648 178.527 15.512 180.383 17.24C182.239 18.968 183.167 21.272 183.167 24.152V29.24H165.407V30.392C165.407 31.448 165.743 32.296 166.415 32.936C167.087 33.576 167.999 33.896 169.151 33.896H172.895C174.015 33.896 174.911 33.656 175.583 33.176C176.287 32.664 176.639 32.008 176.639 31.208H183.071C183.071 32.808 182.639 34.232 181.775 35.48C180.911 36.728 179.695 37.688 178.127 38.36C176.591 39.032 174.815 39.368 172.799 39.368H169.151ZM176.735 24.536V24.152C176.735 22.904 176.399 21.912 175.727 21.176C175.055 20.408 174.159 20.024 173.039 20.024H169.151C167.999 20.024 167.071 20.424 166.367 21.224C165.663 22.024 165.311 23.08 165.311 24.392V24.536H176.735Z" fill="black"/>
<path d="M195.173 39.368C192.677 39.368 190.661 38.744 189.125 37.496C187.589 36.248 186.821 34.6 186.821 32.552V30.776C186.821 28.76 187.621 27.144 189.221 25.928C190.821 24.68 192.933 24.056 195.557 24.056H198.485C199.317 24.056 200.213 24.168 201.173 24.392C202.133 24.616 203.013 24.92 203.813 25.304V22.808C203.813 22.008 203.541 21.368 202.997 20.888C202.485 20.376 201.797 20.12 200.933 20.12H196.805C195.909 20.12 195.189 20.328 194.645 20.744C194.101 21.16 193.829 21.72 193.829 22.424H187.493C187.493 20.088 188.341 18.216 190.037 16.808C191.765 15.368 194.021 14.648 196.805 14.648H200.933C203.749 14.648 206.021 15.4 207.749 16.904C209.477 18.376 210.341 20.344 210.341 22.808V38.984H204.293V36.104C203.525 37.096 202.581 37.896 201.461 38.504C200.341 39.08 199.237 39.368 198.149 39.368H195.173ZM198.629 34.376C199.813 34.376 200.869 34.072 201.797 33.464C202.725 32.856 203.397 32.04 203.813 31.016V30.2C203.301 29.816 202.581 29.512 201.653 29.288C200.757 29.064 199.797 28.952 198.773 28.952H195.749C194.981 28.952 194.357 29.144 193.877 29.528C193.397 29.912 193.157 30.424 193.157 31.064V32.312C193.157 32.92 193.413 33.416 193.925 33.8C194.469 34.184 195.173 34.376 196.037 34.376H198.629Z" fill="black"/>
<path d="M226.085 38.984C223.269 38.984 221.205 38.344 219.893 37.064C218.581 35.784 217.924 33.8 217.924 31.112V20.6H213.701V15.032H218.117V7.784H224.452V15.032H230.693V20.6H224.452V30.824C224.452 31.72 224.612 32.376 224.932 32.792C225.284 33.208 225.828 33.416 226.564 33.416H230.693V38.984H226.085Z" fill="black"/>
<path d="M243.822 39.368C241.806 39.368 240.014 38.984 238.446 38.216C236.91 37.416 235.71 36.296 234.846 34.856C234.014 33.416 233.598 31.752 233.598 29.864V24.248C233.598 22.36 234.03 20.696 234.894 19.256C235.758 17.784 236.958 16.648 238.494 15.848C240.062 15.048 241.854 14.648 243.87 14.648H248.19C250.206 14.648 251.982 15.048 253.518 15.848C255.086 16.648 256.302 17.784 257.166 19.256C258.03 20.696 258.462 22.36 258.462 24.248V29.864C258.462 31.752 258.03 33.416 257.166 34.856C256.302 36.296 255.086 37.416 253.518 38.216C251.982 38.984 250.19 39.368 248.142 39.368H243.822ZM248.046 33.752C249.23 33.752 250.174 33.352 250.878 32.552C251.582 31.72 251.934 30.648 251.934 29.336V24.68C251.934 23.368 251.582 22.312 250.878 21.512C250.174 20.68 249.246 20.264 248.094 20.264H243.966C242.814 20.264 241.886 20.68 241.182 21.512C240.478 22.312 240.126 23.368 240.126 24.68V29.336C240.126 30.648 240.478 31.72 241.182 32.552C241.886 33.352 242.798 33.752 243.918 33.752H248.046Z" fill="black"/>
<path d="M263.058 15.032H269.106V18.104C269.714 17.176 270.578 16.424 271.698 15.848C272.85 15.24 274.05 14.936 275.298 14.936H278.562V20.6H275.298C273.602 20.6 272.226 21.112 271.17 22.136C270.114 23.16 269.586 24.472 269.586 26.072V38.984H263.058V15.032Z" fill="black"/>
</svg>
