<svg width="563" height="204" viewBox="0 0 563 204" fill="none" xmlns="http://www.w3.org/2000/svg">
<path d="M109.42 92.9799L100.96 101.44C109.6 110.14 115 122.14 115 135.4C115 148.13 109.943 160.339 100.941 169.341C91.9394 178.343 79.7304 183.4 67 183.4C54.2696 183.4 42.0606 178.343 33.0589 169.341C24.0571 160.339 19 148.13 19 135.4C19 110.92 37.3 90.7599 61 87.8199V99.9399C43.96 102.82 31 117.58 31 135.4C31 144.948 34.7928 154.104 41.5442 160.856C48.2955 167.607 57.4522 171.4 67 171.4C76.5478 171.4 85.7045 167.607 92.4558 160.856C99.2072 154.104 103 144.948 103 135.4C103 125.44 98.98 116.44 92.44 109.96L83.98 118.42C88.3 122.8 91 128.8 91 135.4C91 141.765 88.4714 147.87 83.9706 152.37C79.4697 156.871 73.3652 159.4 67 159.4C60.6348 159.4 54.5303 156.871 50.0294 152.37C45.5286 147.87 43 141.765 43 135.4C43 124.24 50.68 114.94 61 112.24V125.08C57.4 127.18 55 130.96 55 135.4C55 138.583 56.2643 141.635 58.5147 143.885C60.7652 146.136 63.8174 147.4 67 147.4C70.1826 147.4 73.2348 146.136 75.4853 143.885C77.7357 141.635 79 138.583 79 135.4C79 130.96 76.6 127.12 73 125.08V75.3999H67C59.1207 75.3999 51.3185 76.9518 44.039 79.9671C36.7595 82.9824 30.1451 87.402 24.5736 92.9735C13.3214 104.226 7 119.487 7 135.4C7 151.313 13.3214 166.574 24.5736 177.826C30.1451 183.398 36.7595 187.817 44.039 190.833C51.3185 193.848 59.1207 195.4 67 195.4C82.913 195.4 98.1742 189.078 109.426 177.826C120.679 166.574 127 151.313 127 135.4C127 118.84 120.28 103.84 109.42 92.9799Z" fill="url(#paint0_linear)"/>
<path d="M188.696 186.504C178.136 186.504 169.88 183.576 163.928 177.72C157.976 171.768 155 163.512 155 152.952H174.584C174.584 157.944 175.832 161.88 178.328 164.76C180.92 167.544 184.472 168.936 188.984 168.936H204.968C209.192 168.936 212.6 168.072 215.192 166.344C217.88 164.52 219.224 162.12 219.224 159.144V154.248C219.224 149.544 215.768 146.616 208.856 145.464L182.36 141C173.72 139.56 167.144 136.824 162.632 132.792C158.216 128.664 156.008 123.432 156.008 117.096V109.032C156.008 103.944 157.352 99.4799 160.04 95.6399C162.824 91.7039 166.712 88.6799 171.704 86.5679C176.792 84.4559 182.648 83.3999 189.272 83.3999H205.544C211.784 83.3999 217.304 84.6959 222.104 87.2879C226.904 89.8799 230.6 93.5279 233.192 98.2319C235.88 102.84 237.224 108.216 237.224 114.36H217.64C217.64 110.328 216.536 107.112 214.328 104.712C212.12 102.216 209.192 100.968 205.544 100.968H189.272C185.24 100.968 181.976 101.832 179.48 103.56C177.08 105.288 175.88 107.592 175.88 110.472V114.36C175.88 119.16 179.192 122.136 185.816 123.288L212.168 127.896C220.904 129.432 227.576 132.168 232.184 136.104C236.792 139.944 239.096 144.936 239.096 151.08V160.584C239.096 165.672 237.656 170.184 234.776 174.12C231.992 178.056 228.056 181.128 222.968 183.336C217.88 185.448 211.976 186.504 205.256 186.504H188.696Z" fill="white"/>
<path d="M280.172 186.504C274.124 186.504 268.748 185.352 264.044 183.048C259.436 180.648 255.836 177.288 253.244 172.968C250.748 168.648 249.5 163.656 249.5 157.992V141.144C249.5 135.48 250.796 130.488 253.388 126.168C255.98 121.752 259.58 118.344 264.188 115.944C268.892 113.544 274.268 112.344 280.316 112.344H293.276C299.324 112.344 304.652 113.544 309.26 115.944C313.964 118.344 317.612 121.752 320.204 126.168C322.796 130.488 324.092 135.48 324.092 141.144V157.992C324.092 163.656 322.796 168.648 320.204 172.968C317.612 177.288 313.964 180.648 309.26 183.048C304.652 185.352 299.276 186.504 293.132 186.504H280.172ZM292.844 169.656C296.396 169.656 299.228 168.456 301.34 166.056C303.452 163.56 304.508 160.344 304.508 156.408V142.44C304.508 138.504 303.452 135.336 301.34 132.936C299.228 130.44 296.444 129.192 292.988 129.192H280.604C277.148 129.192 274.364 130.44 272.252 132.936C270.14 135.336 269.084 138.504 269.084 142.44V156.408C269.084 160.344 270.14 163.56 272.252 166.056C274.364 168.456 277.1 169.656 280.46 169.656H292.844Z" fill="white"/>
<path d="M337.88 113.496H356.024V122.136C358.136 119.16 360.872 116.808 364.232 115.08C367.592 113.256 370.952 112.344 374.312 112.344H382.952C390.632 112.344 396.776 114.744 401.384 119.544C406.088 124.344 408.44 130.68 408.44 138.552V185.352H388.856V139.272C388.856 136.296 388.04 133.896 386.408 132.072C384.872 130.248 382.856 129.336 380.36 129.336H371.72C368.36 129.336 365.336 130.584 362.648 133.08C360.056 135.48 358.328 138.648 357.464 142.584V185.352H337.88V113.496Z" fill="white"/>
<path d="M446.976 186.504C439.488 186.504 433.44 184.632 428.832 180.888C424.224 177.144 421.92 172.2 421.92 166.056V160.728C421.92 154.68 424.32 149.832 429.12 146.184C433.92 142.44 440.256 140.568 448.128 140.568H456.912C459.408 140.568 462.096 140.904 464.976 141.576C467.856 142.248 470.496 143.16 472.896 144.312V136.824C472.896 134.424 472.08 132.504 470.448 131.064C468.912 129.528 466.848 128.76 464.256 128.76H451.872C449.184 128.76 447.024 129.384 445.392 130.632C443.76 131.88 442.944 133.56 442.944 135.672H423.936C423.936 128.664 426.48 123.048 431.568 118.824C436.752 114.504 443.52 112.344 451.872 112.344H464.256C472.704 112.344 479.52 114.6 484.704 119.112C489.888 123.528 492.48 129.432 492.48 136.824V185.352H474.336V176.712C472.032 179.688 469.2 182.088 465.84 183.912C462.48 185.64 459.168 186.504 455.904 186.504H446.976ZM457.344 171.528C460.896 171.528 464.064 170.616 466.848 168.792C469.632 166.968 471.648 164.52 472.896 161.448V159C471.36 157.848 469.2 156.936 466.416 156.264C463.728 155.592 460.848 155.256 457.776 155.256H448.704C446.4 155.256 444.528 155.832 443.088 156.984C441.648 158.136 440.928 159.672 440.928 161.592V165.336C440.928 167.16 441.696 168.648 443.232 169.8C444.864 170.952 446.976 171.528 449.568 171.528H457.344Z" fill="white"/>
<path d="M508.318 113.496H526.461V122.712C528.285 119.928 530.878 117.672 534.237 115.944C537.693 114.12 541.294 113.208 545.038 113.208H554.829V130.2H545.038C539.949 130.2 535.822 131.736 532.654 134.808C529.486 137.88 527.901 141.816 527.901 146.616V185.352H508.318V113.496Z" fill="white"/>
<path d="M16.114 8H37.504C40.976 8 43.704 8.82667 45.688 10.48C47.7134 12.092 48.726 14.262 48.726 16.99C48.726 17.6927 48.664 18.416 48.54 19.16L47.486 25.112C46.866 28.7907 45.3367 31.6633 42.898 33.73C40.5007 35.7553 37.4007 36.768 33.598 36.768H18.284L15.742 51.4H8.48804L16.114 8ZM33.722 30.444C35.458 30.444 36.9047 29.9687 38.062 29.018C39.2194 28.026 39.9634 26.6413 40.294 24.864L41.348 19.346C41.4307 18.85 41.472 18.478 41.472 18.23C41.472 17.0313 41.0794 16.0807 40.294 15.378C39.55 14.6753 38.496 14.324 37.132 14.324H22.252L19.4 30.444H33.722Z" fill="white"/>
<path d="M59.8686 51.896C56.3553 51.896 53.5446 51.0073 51.4366 49.23C49.3699 47.4113 48.3366 45.014 48.3366 42.038C48.3366 41.294 48.3986 40.55 48.5226 39.806L49.8866 32.118C50.5893 28.3153 52.1806 25.3393 54.6606 23.19C57.1406 21.0407 60.2406 19.966 63.9606 19.966H69.3546C72.9506 19.966 75.7819 20.8547 77.8486 22.632C79.9566 24.4093 81.0106 26.786 81.0106 29.762C81.0106 30.258 80.9279 31.0433 80.7626 32.118L79.3986 39.806C78.6959 43.6087 77.1046 46.5847 74.6246 48.734C72.1859 50.842 69.0653 51.896 65.2626 51.896H59.8686ZM65.4486 45.758C67.2259 45.758 68.7346 45.1793 69.9746 44.022C71.2146 42.8647 71.9999 41.3147 72.3306 39.372L73.5706 32.49C73.6533 32.1593 73.6946 31.6633 73.6946 31.002C73.6946 29.514 73.2606 28.336 72.3926 27.468C71.5659 26.5587 70.4293 26.104 68.9826 26.104H63.7746C61.9559 26.104 60.4473 26.662 59.2486 27.778C58.0499 28.894 57.2853 30.4647 56.9546 32.49L55.7146 39.372C55.6319 39.744 55.5906 40.2607 55.5906 40.922C55.5906 42.41 56.0039 43.588 56.8306 44.456C57.6573 45.324 58.7939 45.758 60.2406 45.758H65.4486Z" fill="white"/>
<path d="M129.446 20.462L118.472 46.998C117.811 48.5273 117.025 49.6433 116.116 50.346C115.207 51.0487 114.132 51.4 112.892 51.4H109.606L106.134 30.568L95.0362 51.4H91.8122C89.2908 51.4 87.9475 49.9327 87.7822 46.998L86.0462 20.462H93.3002L93.9202 42.348L105.018 21.268H107.746C109.358 21.268 110.288 22.0533 110.536 23.624L113.636 42.286L121.944 20.462H129.446Z" fill="white"/>
<path d="M140.638 51.896C137.042 51.896 134.211 51.0693 132.144 49.416C130.077 47.7213 129.044 45.448 129.044 42.596C129.044 41.8933 129.106 41.17 129.23 40.426L130.656 32.118C131.317 28.3153 132.888 25.3393 135.368 23.19C137.889 21.0407 141.031 19.966 144.792 19.966H149.752C153.183 19.966 155.911 20.8547 157.936 22.632C159.961 24.4093 160.974 26.7653 160.974 29.7C160.974 30.3613 160.912 31.1053 160.788 31.932L159.734 38.194H136.67L136.298 40.426C136.257 40.674 136.236 41.0253 136.236 41.48C136.236 42.844 136.649 43.9187 137.476 44.704C138.303 45.4893 139.439 45.882 140.886 45.882H145.722C147.458 45.882 148.884 45.4893 150 44.704C151.116 43.9187 151.798 42.844 152.046 41.48H158.99C158.453 44.7453 156.985 47.308 154.588 49.168C152.232 50.9867 149.215 51.896 145.536 51.896H140.638ZM153.658 32.862L153.782 32.056C153.865 31.684 153.906 31.188 153.906 30.568C153.906 29.1213 153.513 27.9847 152.728 27.158C151.943 26.3313 150.868 25.918 149.504 25.918H144.42C142.725 25.918 141.258 26.4967 140.018 27.654C138.819 28.77 138.034 30.2993 137.662 32.242L137.538 32.862H153.658Z" fill="white"/>
<path d="M169.241 20.462H175.875L175.131 24.678C176.247 23.3553 177.59 22.3013 179.161 21.516C180.732 20.7307 182.344 20.338 183.997 20.338H187.965L186.849 26.538H183.129C180.773 26.538 178.748 27.2613 177.053 28.708C175.358 30.1547 174.304 32.0353 173.891 34.35L170.915 51.4H163.785L169.241 20.462Z" fill="white"/>
<path d="M198.158 51.896C194.562 51.896 191.73 51.0693 189.664 49.416C187.597 47.7213 186.564 45.448 186.564 42.596C186.564 41.8933 186.626 41.17 186.75 40.426L188.176 32.118C188.837 28.3153 190.408 25.3393 192.888 23.19C195.409 21.0407 198.55 19.966 202.312 19.966H207.272C210.702 19.966 213.43 20.8547 215.456 22.632C217.481 24.4093 218.494 26.7653 218.494 29.7C218.494 30.3613 218.432 31.1053 218.308 31.932L217.254 38.194H194.19L193.818 40.426C193.776 40.674 193.756 41.0253 193.756 41.48C193.756 42.844 194.169 43.9187 194.996 44.704C195.822 45.4893 196.959 45.882 198.406 45.882H203.242C204.978 45.882 206.404 45.4893 207.52 44.704C208.636 43.9187 209.318 42.844 209.566 41.48H216.51C215.972 44.7453 214.505 47.308 212.108 49.168C209.752 50.9867 206.734 51.896 203.056 51.896H198.158ZM211.178 32.862L211.302 32.056C211.384 31.684 211.426 31.188 211.426 30.568C211.426 29.1213 211.033 27.9847 210.248 27.158C209.462 26.3313 208.388 25.918 207.024 25.918H201.94C200.245 25.918 198.778 26.4967 197.538 27.654C196.339 28.77 195.554 30.2993 195.182 32.242L195.058 32.862H211.178Z" fill="white"/>
<path d="M232.402 51.896C229.137 51.896 226.554 51.0487 224.652 49.354C222.792 47.6593 221.862 45.3447 221.862 42.41C221.862 41.5007 221.945 40.6533 222.11 39.868L223.35 32.676C224.053 28.708 225.624 25.608 228.062 23.376C230.501 21.1027 233.56 19.966 237.238 19.966H240.958C242.488 19.966 243.872 20.2553 245.112 20.834C246.394 21.3713 247.386 22.136 248.088 23.128L250.816 8H257.884L250.258 51.4H243.562L244.306 47.122C243.19 48.61 241.909 49.788 240.462 50.656C239.016 51.4827 237.59 51.896 236.184 51.896H232.402ZM237.238 45.758C239.016 45.758 240.69 45.0553 242.26 43.65C243.831 42.2033 244.885 40.426 245.422 38.318L246.538 32.118C246.58 30.2993 246.146 28.8527 245.236 27.778C244.327 26.662 243.108 26.104 241.578 26.104H237.672C235.812 26.104 234.221 26.724 232.898 27.964C231.617 29.204 230.79 30.8987 230.418 33.048L229.302 39.434C229.178 40.054 229.116 40.612 229.116 41.108C229.116 42.5547 229.509 43.6913 230.294 44.518C231.08 45.3447 232.175 45.758 233.58 45.758H237.238Z" fill="white"/>
<path d="M290.25 51.896C288.721 51.896 287.274 51.4827 285.91 50.656C284.546 49.8293 283.513 48.7547 282.81 47.432L282.128 51.4H275.494L283.12 8H290.25L287.584 23.314C288.617 22.2807 289.733 21.4747 290.932 20.896C292.172 20.276 293.371 19.966 294.528 19.966H298.682C301.989 19.966 304.593 20.834 306.494 22.57C308.395 24.2647 309.346 26.5587 309.346 29.452C309.346 30.3613 309.263 31.2087 309.098 31.994L307.796 39.372C307.093 43.2987 305.585 46.378 303.27 48.61C300.955 50.8007 298.062 51.896 294.59 51.896H290.25ZM294.156 45.634C295.851 45.634 297.277 45.0347 298.434 43.836C299.633 42.6373 300.418 41.0253 300.79 39L301.968 32.428C302.051 32.056 302.092 31.5393 302.092 30.878C302.092 29.4313 301.699 28.2947 300.914 27.468C300.129 26.6413 299.054 26.228 297.69 26.228H293.784C291.924 26.228 290.25 26.8687 288.762 28.15C287.315 29.4313 286.323 31.1467 285.786 33.296L284.732 39.372C284.649 41.1907 285.104 42.6993 286.096 43.898C287.129 45.0553 288.452 45.634 290.064 45.634H294.156Z" fill="white"/>
<path d="M322.287 63.986C319.146 63.986 316.624 63.2007 314.723 61.63C312.863 60.1007 311.933 58.0547 311.933 55.492C311.933 55.0787 311.954 54.748 311.995 54.5H319.001C318.96 55.5333 319.249 56.36 319.869 56.98C320.53 57.6 321.419 57.91 322.535 57.91H327.557C329.169 57.91 330.533 57.3313 331.649 56.174C332.806 55.0167 333.55 53.4253 333.881 51.4L334.687 46.812C333.571 48.1347 332.31 49.2093 330.905 50.036C329.5 50.8213 328.239 51.214 327.123 51.214H323.217C320.282 51.214 317.968 50.408 316.273 48.796C314.62 47.184 313.793 45.014 313.793 42.286C313.793 41.79 313.876 40.9633 314.041 39.806L317.451 20.462H324.581L321.171 39.93C321.088 40.5913 321.047 41.046 321.047 41.294C321.047 42.4927 321.336 43.4433 321.915 44.146C322.535 44.8073 323.382 45.138 324.457 45.138H328.115C329.686 45.138 331.215 44.518 332.703 43.278C334.191 41.9967 335.328 40.3433 336.113 38.318L339.337 20.462H346.405L340.949 51.4C340.288 55.368 338.738 58.4473 336.299 60.638C333.902 62.87 330.905 63.986 327.309 63.986H322.287Z" fill="white"/>
<defs>
<linearGradient id="paint0_linear" x1="106.865" y1="75.5262" x2="0.26096" y2="182.913" gradientUnits="userSpaceOnUse">
<stop offset="0.0416667" stop-color="#00F299"/>
<stop offset="0.489583" stop-color="#6787CB"/>
<stop offset="0.59375" stop-color="#7F6ED7"/>
<stop offset="0.640625" stop-color="#8A63DC"/>
<stop offset="0.947917" stop-color="#D119FF"/>
</linearGradient>
</defs>
</svg>
