<svg width="563" height="204" viewBox="0 0 563 204" fill="none" xmlns="http://www.w3.org/2000/svg">
<path d="M109.42 93.1801L100.96 101.64C109.6 110.34 115 122.34 115 135.6C115 148.33 109.943 160.539 100.941 169.541C91.9394 178.543 79.7304 183.6 67 183.6C54.2696 183.6 42.0606 178.543 33.0589 169.541C24.0571 160.539 19 148.33 19 135.6C19 111.12 37.3 90.9601 61 88.0201V100.14C43.96 103.02 31 117.78 31 135.6C31 145.148 34.7928 154.305 41.5442 161.056C48.2955 167.807 57.4522 171.6 67 171.6C76.5478 171.6 85.7045 167.807 92.4558 161.056C99.2072 154.305 103 145.148 103 135.6C103 125.64 98.98 116.64 92.44 110.16L83.98 118.62C88.3 123 91 129 91 135.6C91 141.965 88.4714 148.07 83.9706 152.571C79.4697 157.072 73.3652 159.6 67 159.6C60.6348 159.6 54.5303 157.072 50.0294 152.571C45.5286 148.07 43 141.965 43 135.6C43 124.44 50.68 115.14 61 112.44V125.28C57.4 127.38 55 131.16 55 135.6C55 138.783 56.2643 141.835 58.5147 144.085C60.7652 146.336 63.8174 147.6 67 147.6C70.1826 147.6 73.2348 146.336 75.4853 144.085C77.7357 141.835 79 138.783 79 135.6C79 131.16 76.6 127.32 73 125.28V75.6001H67C59.1207 75.6001 51.3185 77.152 44.039 80.1673C36.7595 83.1826 30.1451 87.6022 24.5736 93.1737C13.3214 104.426 7 119.687 7 135.6C7 151.513 13.3214 166.774 24.5736 178.026C30.1451 183.598 36.7595 188.018 44.039 191.033C51.3185 194.048 59.1207 195.6 67 195.6C82.913 195.6 98.1742 189.279 109.426 178.026C120.679 166.774 127 151.513 127 135.6C127 119.04 120.28 104.04 109.42 93.1801Z" fill="url(#paint0_linear)"/>
<path d="M188.696 186.704C178.136 186.704 169.88 183.776 163.928 177.92C157.976 171.968 155 163.712 155 153.152H174.584C174.584 158.144 175.832 162.08 178.328 164.96C180.92 167.744 184.472 169.136 188.984 169.136H204.968C209.192 169.136 212.6 168.272 215.192 166.544C217.88 164.72 219.224 162.32 219.224 159.344V154.448C219.224 149.744 215.768 146.816 208.856 145.664L182.36 141.2C173.72 139.76 167.144 137.024 162.632 132.992C158.216 128.864 156.008 123.632 156.008 117.296V109.232C156.008 104.144 157.352 99.6801 160.04 95.8401C162.824 91.9041 166.712 88.8801 171.704 86.7681C176.792 84.6561 182.648 83.6001 189.272 83.6001H205.544C211.784 83.6001 217.304 84.8961 222.104 87.4881C226.904 90.0801 230.6 93.7281 233.192 98.4321C235.88 103.04 237.224 108.416 237.224 114.56H217.64C217.64 110.528 216.536 107.312 214.328 104.912C212.12 102.416 209.192 101.168 205.544 101.168H189.272C185.24 101.168 181.976 102.032 179.48 103.76C177.08 105.488 175.88 107.792 175.88 110.672V114.56C175.88 119.36 179.192 122.336 185.816 123.488L212.168 128.096C220.904 129.632 227.576 132.368 232.184 136.304C236.792 140.144 239.096 145.136 239.096 151.28V160.784C239.096 165.872 237.656 170.384 234.776 174.32C231.992 178.256 228.056 181.328 222.968 183.536C217.88 185.648 211.976 186.704 205.256 186.704H188.696Z" fill="white"/>
<path d="M280.172 186.704C274.124 186.704 268.748 185.552 264.044 183.248C259.436 180.848 255.836 177.488 253.244 173.168C250.748 168.848 249.5 163.856 249.5 158.192V141.344C249.5 135.68 250.796 130.688 253.388 126.368C255.98 121.952 259.58 118.544 264.188 116.144C268.892 113.744 274.268 112.544 280.316 112.544H293.276C299.324 112.544 304.652 113.744 309.26 116.144C313.964 118.544 317.612 121.952 320.204 126.368C322.796 130.688 324.092 135.68 324.092 141.344V158.192C324.092 163.856 322.796 168.848 320.204 173.168C317.612 177.488 313.964 180.848 309.26 183.248C304.652 185.552 299.276 186.704 293.132 186.704H280.172ZM292.844 169.856C296.396 169.856 299.228 168.656 301.34 166.256C303.452 163.76 304.508 160.544 304.508 156.608V142.64C304.508 138.704 303.452 135.536 301.34 133.136C299.228 130.64 296.444 129.392 292.988 129.392H280.604C277.148 129.392 274.364 130.64 272.252 133.136C270.14 135.536 269.084 138.704 269.084 142.64V156.608C269.084 160.544 270.14 163.76 272.252 166.256C274.364 168.656 277.1 169.856 280.46 169.856H292.844Z" fill="white"/>
<path d="M337.88 113.696H356.024V122.336C358.136 119.36 360.872 117.008 364.232 115.28C367.592 113.456 370.952 112.544 374.312 112.544H382.952C390.632 112.544 396.776 114.944 401.384 119.744C406.088 124.544 408.44 130.88 408.44 138.752V185.552H388.856V139.472C388.856 136.496 388.04 134.096 386.408 132.272C384.872 130.448 382.856 129.536 380.36 129.536H371.72C368.36 129.536 365.336 130.784 362.648 133.28C360.056 135.68 358.328 138.848 357.464 142.784V185.552H337.88V113.696Z" fill="white"/>
<path d="M446.976 186.704C439.488 186.704 433.44 184.832 428.832 181.088C424.224 177.344 421.92 172.4 421.92 166.256V160.928C421.92 154.88 424.32 150.032 429.12 146.384C433.92 142.64 440.256 140.768 448.128 140.768H456.912C459.408 140.768 462.096 141.104 464.976 141.776C467.856 142.448 470.496 143.36 472.896 144.512V137.024C472.896 134.624 472.08 132.704 470.448 131.264C468.912 129.728 466.848 128.96 464.256 128.96H451.872C449.184 128.96 447.024 129.584 445.392 130.832C443.76 132.08 442.944 133.76 442.944 135.872H423.936C423.936 128.864 426.48 123.248 431.568 119.024C436.752 114.704 443.52 112.544 451.872 112.544H464.256C472.704 112.544 479.52 114.8 484.704 119.312C489.888 123.728 492.48 129.632 492.48 137.024V185.552H474.336V176.912C472.032 179.888 469.2 182.288 465.84 184.112C462.48 185.84 459.168 186.704 455.904 186.704H446.976ZM457.344 171.728C460.896 171.728 464.064 170.816 466.848 168.992C469.632 167.168 471.648 164.72 472.896 161.648V159.2C471.36 158.048 469.2 157.136 466.416 156.464C463.728 155.792 460.848 155.456 457.776 155.456H448.704C446.4 155.456 444.528 156.032 443.088 157.184C441.648 158.336 440.928 159.872 440.928 161.792V165.536C440.928 167.36 441.696 168.848 443.232 170C444.864 171.152 446.976 171.728 449.568 171.728H457.344Z" fill="white"/>
<path d="M508.318 113.696H526.461V122.912C528.285 120.128 530.878 117.872 534.237 116.144C537.693 114.32 541.294 113.408 545.038 113.408H554.829V130.4H545.038C539.949 130.4 535.822 131.936 532.654 135.008C529.486 138.08 527.901 142.016 527.901 146.816V185.552H508.318V113.696Z" fill="white"/>
<path d="M15.5261 9H35.5361C38.7841 9 41.3361 9.77333 43.1921 11.32C45.0868 12.828 46.0341 14.858 46.0341 17.41C46.0341 18.0673 45.9761 18.744 45.8601 19.44L44.8741 25.008C44.2941 28.4493 42.8634 31.1367 40.5821 33.07C38.3394 34.9647 35.4394 35.912 31.8821 35.912H17.5561L15.1781 49.6H8.39209L15.5261 9ZM31.9981 29.996C33.6221 29.996 34.9754 29.5513 36.0581 28.662C37.1408 27.734 37.8368 26.4387 38.1461 24.776L39.1321 19.614C39.2094 19.15 39.2481 18.802 39.2481 18.57C39.2481 17.4487 38.8808 16.5593 38.1461 15.902C37.4501 15.2447 36.4641 14.916 35.1881 14.916H21.2681L18.6001 29.996H31.9981Z" fill="white"/>
<path d="M56.4578 50.064C53.1711 50.064 50.5418 49.2327 48.5698 47.57C46.6364 45.8687 45.6698 43.626 45.6698 40.842C45.6698 40.146 45.7278 39.45 45.8438 38.754L47.1198 31.562C47.7771 28.0047 49.2658 25.2207 51.5858 23.21C53.9058 21.1993 56.8058 20.194 60.2858 20.194H65.3318C68.6958 20.194 71.3444 21.0253 73.2778 22.688C75.2498 24.3507 76.2358 26.574 76.2358 29.358C76.2358 29.822 76.1585 30.5567 76.0038 31.562L74.7278 38.754C74.0704 42.3113 72.5818 45.0953 70.2618 47.106C67.9804 49.078 65.0611 50.064 61.5038 50.064H56.4578ZM61.6778 44.322C63.3404 44.322 64.7518 43.7807 65.9118 42.698C67.0718 41.6153 67.8064 40.1653 68.1158 38.348L69.2758 31.91C69.3531 31.6007 69.3918 31.1367 69.3918 30.518C69.3918 29.126 68.9858 28.024 68.1738 27.212C67.4004 26.3613 66.3371 25.936 64.9838 25.936H60.1118C58.4104 25.936 56.9991 26.458 55.8778 27.502C54.7564 28.546 54.0411 30.0153 53.7318 31.91L52.5718 38.348C52.4944 38.696 52.4558 39.1793 52.4558 39.798C52.4558 41.19 52.8424 42.292 53.6158 43.104C54.3891 43.916 55.4524 44.322 56.8058 44.322H61.6778Z" fill="white"/>
<path d="M121.546 20.658L111.28 45.482C110.662 46.9127 109.927 47.9567 109.076 48.614C108.226 49.2713 107.22 49.6 106.06 49.6H102.986L99.7385 30.112L89.3565 49.6H86.3405C83.9818 49.6 82.7251 48.2273 82.5705 45.482L80.9465 20.658H87.7325L88.3125 41.132L98.6945 21.412H101.246C102.754 21.412 103.624 22.1467 103.856 23.616L106.756 41.074L114.528 20.658H121.546Z" fill="white"/>
<path d="M132.016 50.064C128.652 50.064 126.004 49.2907 124.07 47.744C122.137 46.1587 121.17 44.032 121.17 41.364C121.17 40.7067 121.228 40.03 121.344 39.334L122.678 31.562C123.297 28.0047 124.766 25.2207 127.086 23.21C129.445 21.1993 132.384 20.194 135.902 20.194H140.542C143.752 20.194 146.304 21.0253 148.198 22.688C150.093 24.3507 151.04 26.5547 151.04 29.3C151.04 29.9187 150.982 30.6147 150.866 31.388L149.88 37.246H128.304L127.956 39.334C127.918 39.566 127.898 39.8947 127.898 40.32C127.898 41.596 128.285 42.6013 129.058 43.336C129.832 44.0707 130.895 44.438 132.248 44.438H136.772C138.396 44.438 139.73 44.0707 140.774 43.336C141.818 42.6013 142.456 41.596 142.688 40.32H149.184C148.682 43.3747 147.309 45.772 145.066 47.512C142.862 49.2133 140.04 50.064 136.598 50.064H132.016ZM144.196 32.258L144.312 31.504C144.39 31.156 144.428 30.692 144.428 30.112C144.428 28.7587 144.061 27.6953 143.326 26.922C142.592 26.1487 141.586 25.762 140.31 25.762H135.554C133.969 25.762 132.596 26.3033 131.436 27.386C130.315 28.43 129.58 29.8607 129.232 31.678L129.116 32.258H144.196Z" fill="white"/>
<path d="M158.774 20.658H164.98L164.284 24.602C165.328 23.3647 166.585 22.3787 168.054 21.644C169.523 20.9093 171.031 20.542 172.578 20.542H176.29L175.246 26.342H171.766C169.562 26.342 167.667 27.0187 166.082 28.372C164.497 29.7253 163.511 31.4847 163.124 33.65L160.34 49.6H153.67L158.774 20.658Z" fill="white"/>
<path d="M185.825 50.064C182.461 50.064 179.812 49.2907 177.879 47.744C175.946 46.1587 174.979 44.032 174.979 41.364C174.979 40.7067 175.037 40.03 175.153 39.334L176.487 31.562C177.106 28.0047 178.575 25.2207 180.895 23.21C183.254 21.1993 186.192 20.194 189.711 20.194H194.351C197.56 20.194 200.112 21.0253 202.007 22.688C203.902 24.3507 204.849 26.5547 204.849 29.3C204.849 29.9187 204.791 30.6147 204.675 31.388L203.689 37.246H182.113L181.765 39.334C181.726 39.566 181.707 39.8947 181.707 40.32C181.707 41.596 182.094 42.6013 182.867 43.336C183.64 44.0707 184.704 44.438 186.057 44.438H190.581C192.205 44.438 193.539 44.0707 194.583 43.336C195.627 42.6013 196.265 41.596 196.497 40.32H202.993C202.49 43.3747 201.118 45.772 198.875 47.512C196.671 49.2133 193.848 50.064 190.407 50.064H185.825ZM198.005 32.258L198.121 31.504C198.198 31.156 198.237 30.692 198.237 30.112C198.237 28.7587 197.87 27.6953 197.135 26.922C196.4 26.1487 195.395 25.762 194.119 25.762H189.363C187.778 25.762 186.405 26.3033 185.245 27.386C184.124 28.43 183.389 29.8607 183.041 31.678L182.925 32.258H198.005Z" fill="white"/>
<path d="M217.86 50.064C214.806 50.064 212.389 49.2713 210.61 47.686C208.87 46.1007 208 43.9353 208 41.19C208 40.3393 208.078 39.5467 208.232 38.812L209.392 32.084C210.05 28.372 211.519 25.472 213.8 23.384C216.082 21.2573 218.943 20.194 222.384 20.194H225.864C227.295 20.194 228.59 20.4647 229.75 21.006C230.949 21.5087 231.877 22.224 232.534 23.152L235.086 9H241.698L234.564 49.6H228.3L228.996 45.598C227.952 46.99 226.754 48.092 225.4 48.904C224.047 49.6773 222.713 50.064 221.398 50.064H217.86ZM222.384 44.322C224.047 44.322 225.613 43.6647 227.082 42.35C228.552 40.9967 229.538 39.334 230.04 37.362L231.084 31.562C231.123 29.8607 230.717 28.5073 229.866 27.502C229.016 26.458 227.875 25.936 226.444 25.936H222.79C221.05 25.936 219.562 26.516 218.324 27.676C217.126 28.836 216.352 30.4213 216.004 32.432L214.96 38.406C214.844 38.986 214.786 39.508 214.786 39.972C214.786 41.3253 215.154 42.3887 215.888 43.162C216.623 43.9353 217.648 44.322 218.962 44.322H222.384Z" fill="white"/>
<path d="M271.976 50.064C270.545 50.064 269.192 49.6773 267.916 48.904C266.64 48.1307 265.673 47.1253 265.016 45.888L264.378 49.6H258.172L265.306 9H271.976L269.482 23.326C270.448 22.3593 271.492 21.6053 272.614 21.064C273.774 20.484 274.895 20.194 275.978 20.194H279.864C282.957 20.194 285.393 21.006 287.172 22.63C288.95 24.2153 289.84 26.3613 289.84 29.068C289.84 29.9187 289.762 30.7113 289.608 31.446L288.39 38.348C287.732 42.0213 286.321 44.902 284.156 46.99C281.99 49.0393 279.284 50.064 276.036 50.064H271.976ZM275.63 44.206C277.215 44.206 278.549 43.6453 279.632 42.524C280.753 41.4027 281.488 39.8947 281.836 38L282.938 31.852C283.015 31.504 283.054 31.0207 283.054 30.402C283.054 29.0487 282.686 27.9853 281.952 27.212C281.217 26.4387 280.212 26.052 278.936 26.052H275.282C273.542 26.052 271.976 26.6513 270.584 27.85C269.23 29.0487 268.302 30.6533 267.8 32.664L266.814 38.348C266.736 40.0493 267.162 41.4607 268.09 42.582C269.056 43.6647 270.294 44.206 271.802 44.206H275.63Z" fill="white"/>
<path d="M301.946 61.374C299.007 61.374 296.649 60.6393 294.87 59.17C293.13 57.7393 292.26 55.8253 292.26 53.428C292.26 53.0413 292.279 52.732 292.318 52.5H298.872C298.833 53.4667 299.104 54.24 299.684 54.82C300.303 55.4 301.134 55.69 302.178 55.69H306.876C308.384 55.69 309.66 55.1487 310.704 54.066C311.787 52.9833 312.483 51.4947 312.792 49.6L313.546 45.308C312.502 46.5453 311.323 47.5507 310.008 48.324C308.693 49.0587 307.514 49.426 306.47 49.426H302.816C300.071 49.426 297.905 48.672 296.32 47.164C294.773 45.656 294 43.626 294 41.074C294 40.61 294.077 39.8367 294.232 38.754L297.422 20.658H304.092L300.902 38.87C300.825 39.4887 300.786 39.914 300.786 40.146C300.786 41.2673 301.057 42.1567 301.598 42.814C302.178 43.4327 302.971 43.742 303.976 43.742H307.398C308.867 43.742 310.298 43.162 311.69 42.002C313.082 40.8033 314.145 39.2567 314.88 37.362L317.896 20.658H324.508L319.404 49.6C318.785 53.312 317.335 56.1927 315.054 58.242C312.811 60.33 310.008 61.374 306.644 61.374H301.946Z" fill="white"/>
<defs>
<linearGradient id="paint0_linear" x1="106.865" y1="75.7264" x2="0.26096" y2="183.114" gradientUnits="userSpaceOnUse">
<stop offset="0.0416667" stop-color="#00F299"/>
<stop offset="0.489583" stop-color="#6787CB"/>
<stop offset="0.59375" stop-color="#7F6ED7"/>
<stop offset="0.640625" stop-color="#8A63DC"/>
<stop offset="0.947917" stop-color="#D119FF"/>
</linearGradient>
</defs>
</svg>
