<?xml version="1.0" standalone="no"?>
<!DOCTYPE svg PUBLIC "-//W3C//DTD SVG 20010904//EN"
 "http://www.w3.org/TR/2001/REC-SVG-20010904/DTD/svg10.dtd">
<svg version="1.0" xmlns="http://www.w3.org/2000/svg"
 width="850.000000pt" height="850.000000pt" viewBox="0 0 850.000000 850.000000"
 preserveAspectRatio="xMidYMid meet">
<metadata>
Created by potrace 1.14, written by Peter Selinger 2001-2017
</metadata>
<g transform="translate(0.000000,850.000000) scale(0.100000,-0.100000)"
fill="#000000" stroke="none">
<path d="M4038 8245 c-2 -1 -42 -5 -90 -9 -199 -14 -489 -58 -596 -90 -9 -3
-28 -7 -42 -10 -36 -6 -199 -52 -310 -87 -109 -35 -304 -113 -440 -176 -52
-25 -96 -44 -97 -44 -1 0 -64 -34 -138 -75 -159 -88 -272 -159 -408 -258 -53
-39 -111 -81 -129 -93 -126 -91 -427 -379 -563 -538 -33 -38 -62 -72 -65 -75
-36 -33 -239 -319 -306 -430 -21 -36 -41 -67 -44 -70 -4 -3 -13 -21 -22 -40
-9 -19 -27 -51 -40 -70 -40 -60 -218 -439 -218 -465 0 -4 -6 -21 -14 -38 -8
-18 -27 -68 -41 -112 -15 -44 -30 -87 -33 -95 -8 -24 -10 -29 -47 -160 -19
-69 -37 -134 -39 -145 -2 -11 -13 -65 -25 -120 -11 -55 -23 -120 -26 -145 -3
-25 -8 -52 -10 -60 -2 -8 -7 -44 -10 -80 -4 -36 -8 -67 -10 -70 -9 -15 -20
-245 -20 -440 0 -193 6 -322 20 -430 15 -127 24 -188 30 -220 3 -14 7 -36 9
-50 3 -14 8 -41 10 -60 3 -19 15 -75 26 -125 11 -49 23 -100 26 -113 10 -46
74 -250 108 -346 121 -335 266 -620 460 -906 45 -67 163 -227 176 -240 3 -3
21 -25 40 -50 118 -154 406 -435 615 -600 411 -326 908 -576 1430 -721 136
-37 409 -91 525 -104 36 -4 79 -9 95 -11 204 -25 715 -26 850 0 11 2 47 7 80
10 33 4 101 14 150 22 150 25 176 30 203 38 9 3 31 8 47 10 60 11 283 75 380
111 55 20 105 38 110 39 6 2 23 8 38 14 16 7 30 12 32 12 10 0 231 97 315 139
103 51 253 136 365 207 39 24 83 52 98 61 16 10 37 25 47 33 10 8 28 22 40 30
32 21 170 127 201 153 14 12 53 44 85 72 86 72 308 293 393 390 40 46 108 130
152 187 43 57 83 108 87 113 62 77 272 427 339 565 131 269 272 669 317 900 3
14 8 36 11 50 11 50 18 90 29 165 3 22 8 50 10 62 3 12 7 49 11 82 3 33 8 69
10 81 26 135 26 669 1 875 -2 11 -6 47 -10 80 -13 102 -38 236 -72 385 -9 40
-17 77 -18 84 -2 6 -9 31 -16 56 -7 25 -14 50 -16 55 -19 88 -133 398 -199
540 -139 302 -314 589 -505 831 -112 142 -295 344 -312 344 -5 0 -133 -125
-286 -278 l-278 -278 21 -20 c117 -117 269 -307 380 -476 37 -57 75 -114 84
-128 9 -14 34 -59 56 -100 21 -41 46 -89 56 -107 80 -144 214 -518 258 -723
31 -142 36 -170 55 -312 36 -259 25 -731 -20 -923 -1 -5 -5 -30 -9 -55 -19
-124 -120 -490 -154 -558 -5 -9 -19 -44 -31 -77 -50 -131 -260 -521 -317 -590
-5 -5 -24 -32 -43 -60 -19 -27 -40 -56 -46 -65 -310 -387 -599 -638 -987 -859
-57 -32 -225 -116 -295 -147 -136 -61 -459 -165 -582 -188 -14 -2 -46 -9 -71
-15 -25 -6 -61 -13 -80 -15 -55 -7 -112 -16 -134 -21 -130 -26 -668 -26 -805
0 -12 2 -41 6 -64 9 -43 5 -214 40 -311 63 -461 109 -962 370 -1330 693 -73
64 -260 254 -316 320 -30 36 -56 67 -59 70 -3 3 -32 39 -63 80 -31 41 -60 80
-65 85 -80 105 -237 382 -325 575 -123 270 -230 690 -255 1005 -14 178 -7 549
12 650 2 11 7 47 11 80 12 94 13 102 19 132 3 15 8 42 11 59 20 125 128 476
184 599 40 87 145 301 150 305 3 3 13 18 21 34 34 67 212 328 288 422 80 100
291 319 384 401 86 75 295 232 366 274 15 9 64 39 109 67 197 122 588 292 749
327 10 2 53 13 94 23 41 11 116 28 165 37 50 9 112 20 138 26 97 19 87 63 87
-395 l0 -404 -32 -5 c-18 -3 -44 -7 -58 -11 -14 -3 -38 -8 -55 -12 -16 -3 -50
-12 -75 -19 -25 -8 -56 -17 -70 -19 -51 -10 -344 -125 -375 -146 -5 -4 -46
-27 -90 -50 -238 -128 -483 -326 -660 -534 -77 -90 -79 -93 -95 -116 -8 -12
-20 -28 -25 -34 -25 -27 -146 -218 -183 -289 -81 -154 -148 -321 -196 -492
-28 -100 -28 -101 -57 -270 -23 -137 -34 -464 -19 -580 5 -38 12 -90 15 -115
5 -40 12 -83 20 -130 85 -462 350 -949 692 -1270 137 -129 328 -273 443 -336
19 -10 37 -21 40 -24 12 -12 282 -140 295 -140 4 0 21 -7 38 -15 84 -38 323
-101 477 -124 36 -6 83 -13 105 -17 85 -12 421 -12 530 2 132 16 294 48 390
76 39 11 75 21 80 23 57 13 385 157 445 195 8 5 47 28 85 51 70 41 223 153
299 219 90 76 255 251 333 351 252 324 429 743 478 1134 4 28 10 77 15 110 8
62 6 451 -3 495 -3 14 -8 43 -11 65 -10 75 -24 150 -41 220 -9 39 -18 75 -19
80 -4 20 -38 130 -46 150 -4 11 -22 56 -40 101 -40 105 -167 355 -182 362 -5
2 -8 10 -8 18 0 8 -4 14 -10 14 -5 0 -10 4 -10 10 0 11 -133 197 -172 242 -54
60 -135 145 -146 151 -7 5 -116 -97 -290 -271 l-279 -279 34 -39 c19 -21 51
-59 71 -84 20 -25 40 -47 43 -50 17 -16 122 -187 156 -256 62 -125 122 -316
149 -479 12 -75 11 -365 -2 -455 -14 -88 -76 -325 -95 -360 -5 -8 -26 -53 -47
-100 -95 -206 -296 -456 -466 -577 -17 -12 -35 -26 -41 -30 -11 -8 -63 -42
-131 -86 -121 -76 -328 -153 -509 -189 -145 -29 -432 -31 -570 -4 -90 17 -287
72 -315 87 -8 5 -55 27 -105 50 -96 45 -234 133 -325 207 -259 212 -466 548
-541 877 -43 190 -48 480 -11 650 74 341 229 628 455 841 95 91 220 187 287
223 25 13 47 27 50 30 17 20 251 121 319 136 9 2 26 7 39 11 l22 6 0 -428 0
-429 -47 -30 c-53 -33 -193 -166 -193 -182 0 -6 -7 -16 -15 -23 -40 -33 -107
-192 -129 -306 -19 -98 -14 -269 9 -338 9 -27 18 -58 21 -69 3 -20 52 -122 77
-162 109 -178 309 -314 526 -360 64 -13 245 -14 306 0 371 79 632 389 640 760
5 209 -63 408 -184 537 -72 76 -109 109 -156 139 l-55 34 0 1658 0 1658 -305
-2 c-168 -1 -306 -3 -307 -4z"/>
</g>
</svg>
