<svg width="120" height="120" viewBox="0 0 120 120" fill="none" xmlns="http://www.w3.org/2000/svg">
<path d="M102.42 17.58L93.96 26.04C102.6 34.74 108 46.74 108 60C108 72.7304 102.943 84.9394 93.9411 93.9411C84.9394 102.943 72.7304 108 60 108C47.2696 108 35.0606 102.943 26.0589 93.9411C17.0571 84.9394 12 72.7304 12 60C12 35.52 30.3 15.36 54 12.42V24.54C36.96 27.42 24 42.18 24 60C24 69.5478 27.7928 78.7045 34.5442 85.4558C41.2955 92.2072 50.4522 96 60 96C69.5478 96 78.7045 92.2072 85.4558 85.4558C92.2072 78.7045 96 69.5478 96 60C96 50.04 91.98 41.04 85.44 34.56L76.98 43.02C81.3 47.4 84 53.4 84 60C84 66.3652 81.4714 72.4697 76.9706 76.9706C72.4697 81.4714 66.3652 84 60 84C53.6348 84 47.5303 81.4714 43.0294 76.9706C38.5286 72.4697 36 66.3652 36 60C36 48.84 43.68 39.54 54 36.84V49.68C50.4 51.78 48 55.56 48 60C48 63.1826 49.2643 66.2348 51.5147 68.4853C53.7652 70.7357 56.8174 72 60 72C63.1826 72 66.2348 70.7357 68.4853 68.4853C70.7357 66.2348 72 63.1826 72 60C72 55.56 69.6 51.72 66 49.68V0H60C52.1207 0 44.3185 1.55195 37.039 4.56723C29.7595 7.58251 23.1451 12.0021 17.5736 17.5736C6.32141 28.8258 0 44.087 0 60C0 75.913 6.32141 91.1742 17.5736 102.426C23.1451 107.998 29.7595 112.417 37.039 115.433C44.3185 118.448 52.1207 120 60 120C75.913 120 91.1742 113.679 102.426 102.426C113.679 91.1742 120 75.913 120 60C120 43.44 113.28 28.44 102.42 17.58Z" fill="url(#paint0_linear)"/>
<defs>
<linearGradient id="paint0_linear" x1="99.8653" y1="0.126267" x2="-6.73904" y2="107.514" gradientUnits="userSpaceOnUse">
<stop offset="0.0416667" stop-color="#00F299"/>
<stop offset="0.947917" stop-color="#D119FF"/>
</linearGradient>
</defs>
</svg>
